<svg width="128" height="128" fill="none" xmlns="http://www.w3.org/2000/svg">
    <rect width="128" height="128" rx="32" ry="32" fill="#F52B64" />
    <filter id="dropshadow" height="130%">
        <feGaussianBlur in="SourceAlpha" stdDeviation="4" /> 
        <feOffset dx="4" dy="4" result="offsetblur" /> 
        <feComponentTransfer>
            <feFuncA type="linear" slope="0.25" />
        </feComponentTransfer>
        <feMerge>
            <feMergeNode /> 
            <feMergeNode in="SourceGraphic" /> 
        </feMerge>
    </filter>
    <path d="M45.333 21.333a24 24 0 0 0-24 24v3.808a8 8 0 1 0 16 0v-3.808a8 8 0 0 1 8-8h3.808a8 8 0 0 0 0-16h-3.808Zm33.526 0a8 8 0 0 0 0 16h3.808a8 8 0 0 1 8 8v3.808a8 8 0 0 0 16 0v-3.808a24.003 24.003 0 0 0-24-24h-3.808ZM37.333 78.86a8 8 0 0 0-16 0v3.808a24 24 0 0 0 24 24h3.808a8.001 8.001 0 0 0 0-16h-3.808a8 8 0 0 1-8-8v-3.808Zm69.334 0a8.001 8.001 0 0 0-16 0v3.808a8 8 0 0 1-8 8h-3.808a8 8 0 1 0 0 16h3.808a24.002 24.002 0 0 0 24-24v-3.808ZM50.667 56a8 8 0 0 0 0 16h26.666a8 8 0 1 0 0-16H50.667Z" fill="#FFF" transform="matrix(1.2 0 0 1.2 -12.8 -12.8)" filter="url(#dropshadow)" />
</svg>